<?xml version="1.0" encoding="utf-8"?>
<!-- Generator: Adobe Illustrator 22.0.1, SVG Export Plug-In . SVG Version: 6.00 Build 0)  -->
<svg version="1.1" id="Layer_1" xmlns="http://www.w3.org/2000/svg" xmlns:xlink="http://www.w3.org/1999/xlink" x="0px" y="0px"
	 viewBox="0 0 200 60" style="enable-background:new 0 0 200 60;" xml:space="preserve">
<style type="text/css">
	.st0{fill:#181A1C;}
	.st1{fill-rule:evenodd;clip-rule:evenodd;fill:#4CBEA4;}
	.st2{fill-rule:evenodd;clip-rule:evenodd;fill:#FFFFFF;}
	.st3{fill:#FFFFFF;}
</style>
<g>
	<g>
		<path class="st0" d="M81.1,35.1c0-0.9-0.3-1.7-1-2.3c-0.7-0.6-1.8-1.1-3.5-1.6c-2.4-0.7-4.3-1.5-5.6-2.6c-1.3-1.1-2-2.5-2-4.3
			c0-1.8,0.7-3.3,2.2-4.5c1.4-1.2,3.3-1.8,5.6-1.8c2.4,0,4.4,0.7,5.8,2c1.5,1.3,2.2,2.9,2.1,4.8l0,0.1H81c0-1.2-0.4-2.1-1.2-2.8
			C79.1,21.4,78,21,76.7,21c-1.3,0-2.2,0.3-2.9,0.9c-0.7,0.6-1,1.4-1,2.3c0,0.9,0.4,1.6,1.1,2.1c0.8,0.6,2,1.1,3.7,1.6
			c2.4,0.7,4.2,1.6,5.4,2.7c1.2,1.1,1.9,2.6,1.9,4.4c0,1.9-0.7,3.4-2.2,4.5c-1.5,1.1-3.4,1.7-5.8,1.7c-2.3,0-4.3-0.6-6-1.8
			c-1.7-1.2-2.5-2.9-2.5-5.1l0-0.1h3.6c0,1.3,0.5,2.4,1.4,3.1c0.9,0.7,2.1,1,3.4,1c1.3,0,2.4-0.3,3.1-0.8
			C80.7,36.8,81.1,36.1,81.1,35.1z"/>
		<path class="st0" d="M92,26.3c0.6-0.8,1.2-1.4,2-1.8c0.8-0.4,1.7-0.6,2.6-0.6c1.8,0,3.2,0.6,4.1,1.7c1,1.1,1.5,2.8,1.5,5.2v10.2
			h-3.8V30.7c0-1.3-0.3-2.3-0.8-2.9c-0.5-0.6-1.3-0.9-2.3-0.9c-0.8,0-1.5,0.1-2.1,0.4c-0.6,0.3-1.1,0.7-1.4,1.2v12.3h-3.8V16.8H92
			V26.3z"/>
		<path class="st0" d="M105.5,32.4c0-2.5,0.7-4.5,2-6.1c1.4-1.6,3.2-2.4,5.6-2.4c2.4,0,4.3,0.8,5.6,2.4c1.4,1.6,2,3.6,2,6.1v0.3
			c0,2.5-0.7,4.6-2,6.1c-1.4,1.6-3.2,2.4-5.6,2.4c-2.4,0-4.3-0.8-5.6-2.4c-1.4-1.6-2-3.6-2-6.1V32.4z M109.3,32.7c0,1.6,0.3,3,1,4
			c0.6,1,1.6,1.5,3,1.5c1.3,0,2.3-0.5,2.9-1.5c0.7-1,1-2.4,1-4v-0.3c0-1.6-0.3-2.9-1-3.9c-0.7-1-1.6-1.6-3-1.6
			c-1.3,0-2.3,0.5-2.9,1.6c-0.6,1-1,2.4-1,3.9V32.7z"/>
		<path class="st0" d="M138.7,33.1c0,2.4-0.6,4.4-1.7,5.9c-1.1,1.5-2.7,2.2-4.8,2.2c-0.9,0-1.8-0.2-2.5-0.5
			c-0.7-0.3-1.4-0.8-1.9-1.5v8.1h-3.8V24.2h3.2l0.4,2.1c0.5-0.8,1.2-1.4,1.9-1.8c0.8-0.4,1.6-0.6,2.6-0.6c2.1,0,3.7,0.8,4.8,2.4
			c1.1,1.6,1.7,3.8,1.7,6.5V33.1z M135,32.7c0-1.7-0.3-3.1-1-4.2c-0.6-1.1-1.6-1.6-2.9-1.6c-0.8,0-1.4,0.2-2,0.5
			c-0.5,0.3-1,0.8-1.3,1.4v7.6c0.3,0.6,0.8,1,1.3,1.4c0.5,0.3,1.2,0.5,2,0.5c1.3,0,2.2-0.5,2.9-1.4c0.6-0.9,0.9-2.2,0.9-3.7V32.7z"
			/>
		<path class="st0" d="M156.6,33.1c0,2.4-0.6,4.4-1.7,5.9c-1.1,1.5-2.7,2.2-4.8,2.2c-0.9,0-1.8-0.2-2.5-0.5
			c-0.7-0.3-1.4-0.8-1.9-1.5v8.1H142V24.2h3.2l0.4,2.1c0.5-0.8,1.2-1.4,1.9-1.8c0.8-0.4,1.6-0.6,2.6-0.6c2.1,0,3.7,0.8,4.8,2.4
			s1.7,3.8,1.7,6.5V33.1z M152.9,32.7c0-1.7-0.3-3.1-1-4.2c-0.6-1.1-1.6-1.6-2.9-1.6c-0.8,0-1.4,0.2-2,0.5c-0.5,0.3-1,0.8-1.3,1.4
			v7.6c0.3,0.6,0.8,1,1.3,1.4c0.5,0.3,1.2,0.5,2,0.5c1.3,0,2.2-0.5,2.9-1.4c0.6-0.9,0.9-2.2,0.9-3.7V32.7z"/>
		<path class="st0" d="M163.9,20.1h-3.8v-3.3h3.8V20.1z M163.9,40.9h-3.8V24.2h3.8V40.9z"/>
		<path class="st0" d="M171.5,24.2l0.2,2.4c0.5-0.9,1.2-1.5,2.1-2c0.8-0.5,1.8-0.7,2.8-0.7c1.7,0,3.1,0.5,4.1,1.6
			c1,1.1,1.5,2.7,1.5,5v10.4h-3.8V30.5c0-1.3-0.3-2.2-0.8-2.8c-0.5-0.5-1.3-0.8-2.3-0.8c-0.8,0-1.5,0.2-2.1,0.5
			c-0.6,0.3-1.1,0.7-1.4,1.3v12.2h-3.8V24.2H171.5z"/>
		<path class="st0" d="M185.4,32.7c0-2.7,0.6-4.8,1.7-6.5c1.1-1.6,2.7-2.4,4.8-2.4c1,0,1.9,0.2,2.6,0.6c0.8,0.4,1.4,1,1.9,1.8
			l0.4-2.2h3.1v16.7c0,2.2-0.7,3.8-2,5c-1.3,1.2-3.2,1.8-5.6,1.8c-0.8,0-1.7-0.1-2.6-0.3c-0.9-0.2-1.8-0.5-2.6-0.9l0.6-3
			c0.6,0.3,1.4,0.6,2.1,0.7s1.6,0.3,2.4,0.3c1.4,0,2.4-0.3,3-0.9c0.6-0.6,0.9-1.5,0.9-2.7v-1.7c-0.5,0.7-1.1,1.2-1.9,1.5
			c-0.7,0.3-1.5,0.5-2.5,0.5c-2,0-3.6-0.7-4.8-2.2c-1.1-1.5-1.7-3.5-1.7-5.9V32.7z M189.2,33.1c0,1.5,0.3,2.8,0.9,3.7
			c0.6,0.9,1.5,1.4,2.8,1.4c0.8,0,1.5-0.2,2-0.5c0.6-0.3,1-0.8,1.3-1.4v-7.3c-0.3-0.6-0.8-1.1-1.4-1.4c-0.6-0.3-1.2-0.5-2-0.5
			c-1.3,0-2.2,0.5-2.8,1.6c-0.6,1.1-0.9,2.5-0.9,4.2V33.1z"/>
	</g>
	<g>
		<g>
			<path id="XMLID_10_" class="st1" d="M35.5,0.3C33.3,0.2,31.6,0,29.9,0C11.6-0.2-2.8,16.9,0.5,35C3,49,14.1,59.3,28.2,60
				c13.7,0.6,25.4-6.5,30.4-20.8c2.4-6.9,2.3-13.8-0.9-20.5c-1.8-3.7-4.6-6.1-8.8-6.6c-3-0.4-6-0.6-9-1.1c-4.1-0.6-8.2-1.3-12.2-2.2
				c-1.2-0.3-2.8-0.9-3.1-2.5c-0.1-2,1.6-2.3,2.7-2.9C29.7,2.2,32.3,1.5,35.5,0.3z"/>
			<path id="XMLID_9_" class="st2" d="M45.4,43.3c-0.8-0.1-1.7,0.2-2.5,0.4l-6.7,1.7c-3,0.8-5.8,1.5-8.8,2.3c-2,0.5-2.9,0.2-5.1-0.4
				c-1.5-0.4-3.1-0.7-4.6-1.1c-0.6-0.1-1.6-0.4-2.6-0.4c-1.3,0-1.6,0.5-1,0.8l6.4,3.2c0.7,0.3,2.7,1.3,3.5,1.5
				c0.7,0.2,1.8,0.3,3,0.2c1.3-0.1,2.1-0.6,3.1-0.9c0.3-0.1,0.6-0.3,0.9-0.4c0.6-0.2,1.1-0.5,1.7-0.8c0.6-0.3,1.1-0.5,1.7-0.8
				l3.3-1.5c2.4-1.1,5.1-2.4,7.4-3.6C45.4,43.6,45.7,43.5,45.4,43.3L45.4,43.3z"/>
		</g>
		<g>
			<path class="st3" d="M24.6,34.7c-0.3,0.1-0.7,0.3-1,0.6c-0.3,0.2-0.6,0.5-1,0.8c-0.3,0.3-0.7,0.6-1,0.9c-0.3,0.3-0.7,0.6-1.1,0.9
				c-0.4,0.3-0.8,0.6-1.3,0.9c-0.5,0.3-1,0.5-1.6,0.7c-0.6,0.2-1.2,0.4-1.9,0.5c-0.7,0.1-1.5,0.2-2.3,0.2c-0.9,0-1.8-0.2-2.5-0.6
				c-0.7-0.4-1.4-0.9-1.9-1.5c-0.5-0.6-0.9-1.4-1.2-2.2c-0.3-0.8-0.4-1.7-0.4-2.7c0-0.6,0.1-1.3,0.2-2c0.1-0.7,0.3-1.5,0.6-2.2
				c0.3-0.8,0.6-1.5,0.9-2.3c0.4-0.7,0.8-1.5,1.3-2.2c0.5-0.7,1-1.3,1.6-1.9c0.6-0.6,1.2-1.1,1.8-1.5c0.6-0.4,1.3-0.8,2-1
				c0.7-0.2,1.4-0.4,2.2-0.4c0.5,0,1,0.1,1.5,0.3c0.5,0.2,1,0.4,1.4,0.8s0.7,0.8,1,1.4c0.3,0.6,0.4,1.2,0.4,2c0,0.5-0.1,1-0.2,1.5
				c-0.2,0.5-0.4,1-0.7,1.5c-0.3,0.5-0.6,0.9-1,1.3c-0.4,0.4-0.8,0.8-1.2,1.1c-0.4,0.3-0.9,0.5-1.4,0.7c-0.5,0.2-0.9,0.3-1.4,0.3
				c-0.6,0-1.1-0.1-1.4-0.3c-0.3-0.2-0.5-0.4-0.5-0.7c0-0.1,0-0.1,0-0.2c0-0.1,0-0.2,0-0.2c0-0.1,0-0.3,0-0.4c0-0.1,0-0.3,0.1-0.4
				c0-0.1,0.1-0.2,0.2-0.3c0.1-0.1,0.2-0.1,0.3-0.1c0.1,0,0.2,0,0.2,0c0.1,0,0.1,0,0.2,0.1c0.1,0,0.2,0.1,0.3,0.1c0.1,0,0.2,0,0.4,0
				c0.4,0,0.9-0.1,1.3-0.3c0.4-0.2,0.9-0.5,1.2-0.8c0.4-0.4,0.7-0.8,0.9-1.3c0.2-0.5,0.3-1,0.3-1.6c0-0.3,0-0.6-0.1-0.9
				c-0.1-0.3-0.2-0.5-0.4-0.7c-0.2-0.2-0.4-0.4-0.7-0.5c-0.3-0.1-0.6-0.2-1.1-0.2c-0.5,0-1,0.1-1.4,0.3c-0.5,0.2-0.9,0.5-1.4,0.9
				c-0.4,0.4-0.8,0.8-1.2,1.3c-0.4,0.5-0.7,1.1-1.1,1.6c-0.3,0.6-0.6,1.2-0.9,1.8c-0.3,0.6-0.5,1.3-0.7,1.9
				c-0.2,0.6-0.3,1.2-0.4,1.8c-0.1,0.6-0.1,1.1-0.1,1.6c0,0.7,0.1,1.3,0.3,1.9c0.2,0.5,0.4,1,0.7,1.3c0.3,0.4,0.7,0.6,1.2,0.8
				c0.5,0.2,1,0.3,1.6,0.3c0.7,0,1.4-0.1,2-0.3c0.6-0.2,1.2-0.4,1.8-0.7c0.6-0.3,1.1-0.6,1.7-1c0.5-0.4,1.1-0.7,1.6-1.1
				c0.5-0.4,1.1-0.7,1.6-1.1c0.6-0.3,1.1-0.6,1.8-0.9V34.7z"/>
			<path class="st3" d="M26,38.2c-0.6,0-1.2-0.1-1.7-0.4c-0.5-0.2-0.9-0.5-1.2-0.9c-0.3-0.4-0.6-0.9-0.7-1.4
				c-0.2-0.5-0.2-1.1-0.2-1.6c0-0.4,0-0.8,0.1-1.2c0.1-0.4,0.2-0.9,0.3-1.3c0.2-0.4,0.3-0.8,0.6-1.2c0.2-0.4,0.5-0.7,0.8-1
				c0.3-0.3,0.7-0.5,1.1-0.7c0.4-0.2,0.8-0.3,1.3-0.3c0.4,0,0.7,0.1,1.1,0.2c0.3,0.1,0.6,0.3,0.9,0.5c0.2,0.2,0.4,0.5,0.6,0.8
				c0.1,0.3,0.2,0.7,0.2,1.1c0,0.4-0.1,0.9-0.3,1.3c-0.2,0.4-0.5,0.8-0.9,1.2c-0.4,0.4-0.8,0.7-1.3,1c-0.5,0.3-1.1,0.5-1.7,0.7
				c0.1,0.2,0.2,0.3,0.3,0.5c0.1,0.1,0.2,0.2,0.3,0.3c0.1,0.1,0.2,0.1,0.3,0.1c0.1,0,0.2,0,0.4,0c0.4,0,0.8-0.1,1.3-0.2
				c0.5-0.2,0.9-0.4,1.3-0.6c0.4-0.2,0.8-0.5,1.2-0.8c0.4-0.3,0.7-0.6,1-0.8l1.3,1.4c-0.6,0.6-1.2,1.2-1.9,1.7
				c-0.3,0.2-0.6,0.4-1,0.6c-0.3,0.2-0.7,0.4-1.1,0.5c-0.4,0.2-0.8,0.3-1.2,0.4C26.8,38.2,26.4,38.2,26,38.2z M24.7,33.4
				c0.2,0,0.5-0.1,0.8-0.2c0.3-0.1,0.6-0.3,0.8-0.5c0.3-0.2,0.5-0.4,0.6-0.6c0.2-0.2,0.3-0.5,0.3-0.7c0-0.3-0.1-0.6-0.2-0.8
				c-0.1-0.2-0.3-0.3-0.4-0.3c-0.3,0-0.5,0.1-0.8,0.2c-0.2,0.1-0.4,0.3-0.5,0.4c-0.1,0.2-0.3,0.4-0.3,0.6c-0.1,0.2-0.2,0.4-0.2,0.7
				c0,0.2-0.1,0.4-0.1,0.7C24.7,33,24.7,33.2,24.7,33.4z"/>
			<path class="st3" d="M30.7,36.1c0-0.3,0-0.7,0.1-1.1c0-0.4,0.1-0.8,0.1-1.3c0.1-0.4,0.1-0.9,0.2-1.4c0.1-0.5,0.2-0.9,0.3-1.3
				c0.1-0.4,0.2-0.8,0.3-1.2c0.1-0.4,0.2-0.6,0.3-0.9c0.1-0.2,0.1-0.3,0.2-0.4c0.1-0.1,0.1-0.2,0.2-0.2c0.1-0.1,0.2-0.1,0.3-0.1
				c0.1,0,0.2,0,0.4,0c0.2,0,0.3,0,0.4,0c0.1,0,0.2,0.1,0.2,0.1c0,0.1,0.1,0.2,0.1,0.3c0,0.1,0,0.3,0,0.5c0,0.3,0,0.6,0,0.9
				c0,0.4,0,0.7,0,1.1h0.1c0.1-0.3,0.3-0.6,0.5-0.9c0.2-0.3,0.4-0.7,0.6-1c0.2-0.3,0.5-0.5,0.8-0.7c0.3-0.2,0.6-0.3,1-0.3
				c0.1,0,0.3,0,0.4,0.1c0.1,0,0.2,0.1,0.3,0.2c0.1,0.1,0.2,0.2,0.2,0.3c0.1,0.1,0.1,0.3,0.1,0.4c0,0.1,0,0.3-0.1,0.5
				c0,0.2-0.1,0.4-0.1,0.7c0,0.2-0.1,0.5-0.1,0.7c0,0.2-0.1,0.4-0.1,0.5c0,0.2,0,0.5,0.1,0.6c0,0.2,0.1,0.3,0.2,0.4
				c0.1,0.1,0.2,0.2,0.3,0.2c0.1,0,0.2,0.1,0.3,0.1c0.3,0,0.6-0.1,1-0.2c0.3-0.1,0.6-0.3,0.9-0.5c0.3-0.2,0.6-0.4,0.9-0.7L40.8,34
				c-0.2,0.1-0.4,0.2-0.6,0.4c-0.2,0.1-0.5,0.3-0.7,0.4c-0.3,0.1-0.5,0.2-0.8,0.3c-0.3,0.1-0.6,0.1-0.8,0.1c-0.5,0-0.9-0.1-1.2-0.3
				c-0.3-0.2-0.6-0.5-0.8-0.8c-0.2-0.3-0.3-0.7-0.4-1.1c-0.1-0.4-0.2-0.9-0.2-1.3H35l-1.8,5.1c-0.1,0.3-0.2,0.5-0.3,0.7
				c-0.1,0.2-0.2,0.3-0.3,0.4c-0.1,0.1-0.2,0.2-0.3,0.2c-0.1,0-0.2,0.1-0.3,0.1c-0.3,0-0.5-0.1-0.7-0.2c-0.2-0.1-0.3-0.3-0.4-0.5
				c-0.1-0.2-0.2-0.4-0.2-0.7C30.7,36.6,30.7,36.3,30.7,36.1z"/>
			<path class="st3" d="M48.1,35.9c-0.7,0.4-1.2,0.7-1.8,1c-0.5,0.3-1,0.5-1.4,0.7s-0.8,0.3-1.1,0.4c-0.3,0.1-0.6,0.1-0.8,0.1
				c-0.5,0-1-0.2-1.4-0.5c-0.4-0.3-0.7-0.8-1-1.4c-0.3-0.6-0.5-1.3-0.6-2.2c-0.1-0.8-0.2-1.8-0.2-2.9c0-0.4,0-0.9,0.1-1.3
				c0-0.5,0.1-0.9,0.1-1.4c-0.2,0-0.4-0.1-0.5-0.1c-0.1,0-0.2,0-0.4-0.1c-0.1,0-0.3,0-0.5-0.1c-0.2,0-0.5-0.1-0.8-0.1
				c-0.2,0-0.3-0.1-0.4-0.1c-0.1-0.1-0.2-0.1-0.2-0.2c0-0.1-0.1-0.2-0.1-0.2c0-0.1,0-0.2,0-0.2c0-0.1,0.1-0.2,0.2-0.3
				c0.1-0.1,0.3-0.1,0.5-0.2c0.2,0,0.4-0.1,0.7-0.1c0.3,0,0.5,0,0.7,0c0.2,0,0.4,0,0.6,0c0.2,0,0.3,0,0.4,0c0.2-0.9,0.4-1.8,0.7-2.7
				c0.3-0.9,0.6-1.6,1-2.3c0.4-0.7,0.7-1.2,1.2-1.6c0.4-0.4,0.9-0.6,1.3-0.6c0.3,0,0.6,0.1,0.8,0.2c0.2,0.2,0.5,0.4,0.6,0.7
				c0.2,0.3,0.3,0.6,0.4,1c0.1,0.4,0.1,0.8,0.1,1.2c0,0.3,0,0.7-0.1,1.1c-0.1,0.4-0.2,0.8-0.4,1.1c-0.2,0.4-0.4,0.8-0.6,1.2
				c-0.2,0.4-0.5,0.8-0.7,1.2c0.1,0,0.2,0,0.3,0c0.1,0,0.3,0,0.5,0c0.2,0,0.4,0,0.6,0c0.2,0,0.4,0,0.6,0c0.2,0,0.4,0,0.6,0
				c0.2,0,0.3,0,0.4,0c0.1,0,0.2,0.1,0.3,0.2c0.1,0.1,0.1,0.3,0.1,0.5c0,0.2-0.1,0.4-0.2,0.6c-0.1,0.2-0.3,0.2-0.5,0.2h-4
				c-0.2,0.3-0.4,0.5-0.6,0.8c-0.2,0.3-0.4,0.5-0.6,0.7c0,0.4-0.1,0.8-0.1,1.3c0,0.2,0,0.4,0,0.6c0,0.2,0,0.4,0,0.6
				c0,0.2,0,0.4,0,0.5c0,0.2,0,0.3,0,0.5c0,0.4,0,0.7,0.1,0.9c0.1,0.3,0.2,0.5,0.3,0.6c0.1,0.2,0.3,0.3,0.5,0.4
				c0.2,0.1,0.4,0.1,0.6,0.1c0.1,0,0.3,0,0.5-0.1c0.2-0.1,0.5-0.2,0.7-0.3c0.3-0.1,0.5-0.3,0.8-0.4c0.3-0.2,0.6-0.3,0.8-0.5
				c0.3-0.2,0.5-0.4,0.8-0.6c0.3-0.2,0.5-0.4,0.7-0.7V35.9z M44.8,22.9c0-0.1,0-0.2,0-0.3c0-0.1,0-0.2-0.1-0.3
				c0-0.1-0.1-0.2-0.2-0.2c-0.1-0.1-0.2-0.1-0.3-0.1c-0.2,0-0.4,0.2-0.5,0.5c-0.2,0.3-0.4,0.7-0.5,1.2c-0.2,0.5-0.3,1-0.5,1.6
				c-0.1,0.6-0.3,1.2-0.4,1.7c0.1,0,0.2,0,0.3,0c0.1,0,0.2,0,0.3,0c0.2-0.4,0.4-0.7,0.6-1.1c0.2-0.4,0.4-0.8,0.6-1.2
				c0.2-0.4,0.3-0.8,0.4-1.1C44.8,23.4,44.8,23.1,44.8,22.9z"/>
			<path class="st3" d="M54.1,36c-0.2,0.2-0.6,0.5-0.9,0.7c-0.4,0.3-0.8,0.5-1.2,0.7c-0.4,0.2-0.9,0.4-1.3,0.5
				c-0.4,0.1-0.9,0.2-1.3,0.2c-0.4,0-0.7,0-0.9-0.1c-0.2-0.1-0.4-0.2-0.6-0.4c-0.2-0.2-0.3-0.4-0.3-0.7c-0.1-0.3-0.1-0.5-0.1-0.9
				c0-0.4,0-0.9,0.1-1.5c0.1-0.6,0.2-1.2,0.4-1.8c0.1-0.6,0.3-1.2,0.5-1.8c0.2-0.6,0.3-1.2,0.4-1.7c0-0.2,0.1-0.3,0.3-0.5
				c0.1-0.1,0.3-0.2,0.5-0.3c0.2-0.1,0.4-0.1,0.6-0.2c0.2,0,0.4-0.1,0.5-0.1c0.3,0,0.5,0.1,0.6,0.2c0.1,0.1,0.2,0.2,0.2,0.4
				c0,0.2,0,0.4-0.1,0.7c-0.1,0.3-0.2,0.6-0.3,1c-0.1,0.4-0.2,0.7-0.3,1.2c-0.1,0.4-0.2,0.8-0.3,1.2c-0.1,0.4-0.2,0.8-0.3,1.2
				c-0.1,0.4-0.1,0.8-0.1,1.1c0,0.3,0,0.6,0.1,0.7c0.1,0.2,0.2,0.3,0.4,0.3c0.2,0,0.5-0.1,0.8-0.3c0.3-0.2,0.6-0.4,0.9-0.6
				c0.3-0.2,0.6-0.5,0.9-0.8c0.3-0.3,0.6-0.5,0.8-0.7V36z M49.5,25.4c0-0.2,0-0.3,0.1-0.5c0.1-0.2,0.2-0.4,0.3-0.6
				c0.2-0.2,0.4-0.3,0.6-0.4c0.3-0.1,0.6-0.2,1-0.2c0.2,0,0.5,0,0.7,0.1c0.2,0.1,0.4,0.1,0.6,0.3c0.2,0.1,0.3,0.3,0.4,0.4
				c0.1,0.2,0.1,0.4,0.1,0.7c0,0.2,0,0.5-0.1,0.7c-0.1,0.2-0.2,0.4-0.4,0.6c-0.2,0.2-0.4,0.3-0.6,0.4c-0.3,0.1-0.6,0.2-0.9,0.2
				c-0.6,0-1.1-0.1-1.3-0.4C49.6,26.3,49.5,25.9,49.5,25.4z"/>
		</g>
	</g>
</g>
</svg>
